<svg xmlns="http://www.w3.org/2000/svg" viewBox="0 0 220 278" width="220" height="278">
  <circle cx="110" cy="108" r="92" fill="none" stroke="#33302A" stroke-width="1.5"/>
  <clipPath id="vertical-en-mono-dark"><circle cx="110" cy="108" r="90"/></clipPath>
  <g clip-path="url(#vertical-en-mono-dark)">
    <path d="M18 135 C38 105 62 92 88 98 C110 103 128 118 150 108 C170 99 188 104 202 112 L202 200 L18 200 Z" fill="#33302A" opacity=".6"/>
    <path d="M18 148 C45 130 65 142 90 136 C115 130 140 148 165 142 C185 137 195 130 202 125 L202 200 L18 200 Z" fill="#33302A" opacity=".35"/>
    <path d="M18 170 C38 158 58 165 82 160 C108 155 135 168 162 164 C180 161 195 155 202 150 L202 200 L18 200 Z" fill="#33302A" opacity=".15"/>
  </g>
  <line x1="110" y1="34" x2="110" y2="126" stroke="#33302A" stroke-width="7.5" stroke-linecap="round"/>
  <line x1="88" y1="59" x2="132" y2="59" stroke="#33302A" stroke-width="7.5" stroke-linecap="round"/>
  <text x="110" y="228" text-anchor="middle" font-family="'Lora', 'Noto Serif SC', Georgia, serif" font-size="22" font-weight="500" fill="#33302A" letter-spacing="2.5">FICCC</text>
  <text x="110" y="248" text-anchor="middle" font-family="'DM Sans', 'Noto Sans SC', -apple-system, sans-serif" font-size="13" fill="#33302A" opacity=".55" letter-spacing="0.3">First Ithaca Chinese</text>
  <text x="110" y="264" text-anchor="middle" font-family="'DM Sans', 'Noto Sans SC', -apple-system, sans-serif" font-size="13" fill="#33302A" opacity=".55" letter-spacing="0.3">Christian Church</text>
</svg>