<svg xmlns="http://www.w3.org/2000/svg" viewBox="0 0 220 216" width="220" height="216">
  <circle cx="110" cy="108" r="92" fill="none" stroke="#BF7E58" stroke-width="1.5"/>
  <clipPath id="icon-color-light"><circle cx="110" cy="108" r="90"/></clipPath>
  <g clip-path="url(#icon-color-light)">
    <path d="M18 135 C38 105 62 92 88 98 C110 103 128 118 150 108 C170 99 188 104 202 112 L202 200 L18 200 Z" fill="#2B5B45"/>
    <path d="M18 148 C45 130 65 142 90 136 C115 130 140 148 165 142 C185 137 195 130 202 125 L202 200 L18 200 Z" fill="#BF7E58"/>
    <path d="M18 170 C38 158 58 165 82 160 C108 155 135 168 162 164 C180 161 195 155 202 150 L202 200 L18 200 Z" fill="#E0DAD0"/>
  </g>
  <line x1="110" y1="34" x2="110" y2="126" stroke="#4A4540" stroke-width="7.5" stroke-linecap="round"/>
  <line x1="88" y1="59" x2="132" y2="59" stroke="#4A4540" stroke-width="7.5" stroke-linecap="round"/>
</svg>